<svg width="20" height="20" viewBox="0 0 20 20" fill="none" xmlns="http://www.w3.org/2000/svg">
<path d="M10.2589 2.5H9.74107C7.71138 2.5 6.69652 2.5 5.86621 2.96043C5.03588 3.42086 4.54302 4.25692 3.55731 5.92905L3.06606 6.76238C2.13312 8.34492 1.66666 9.13625 1.66666 10C1.66666 10.8637 2.13312 11.6551 3.06606 13.2376L3.55731 14.0709C4.54302 15.7431 5.03588 16.5792 5.86621 17.0396C6.69652 17.5 7.71138 17.5 9.74107 17.5H10.2589C12.2886 17.5 13.3035 17.5 14.1337 17.0396C14.9641 16.5792 15.457 15.7431 16.4427 14.0709L16.9339 13.2376C17.8668 11.6551 18.3333 10.8637 18.3333 10C18.3333 9.13625 17.8668 8.34492 16.9339 6.76237L16.4427 5.92905C15.457 4.25692 14.9641 3.42086 14.1337 2.96043C13.3035 2.5 12.2886 2.5 10.2589 2.5Z" stroke="#CD0617" stroke-width="1.5" stroke-linecap="round"/>
<path d="M9.99335 13.3335H10.0008" stroke="#CD0617" stroke-width="1.5" stroke-linecap="round" stroke-linejoin="round"/>
<path d="M9.9935 10.8332V6.6665" stroke="#CD0617" stroke-width="1.5" stroke-linecap="round" stroke-linejoin="round"/>
</svg>
