<svg width="20" height="20" viewBox="0 0 20 20" fill="none" xmlns="http://www.w3.org/2000/svg">
<g clip-path="url(#clip0_2762_2520)">
<path d="M10 18.3332C14.6024 18.3332 18.3334 14.6022 18.3334 9.99984C18.3334 5.39746 14.6024 1.6665 10 1.6665C5.39765 1.6665 1.66669 5.39746 1.66669 9.99984C1.66669 14.6022 5.39765 18.3332 10 18.3332Z" stroke="#050506" stroke-width="1.5"/>
<path d="M8.33331 7.50016C8.33331 6.57969 9.07948 5.8335 9.99998 5.8335C10.9205 5.8335 11.6666 6.57969 11.6666 7.50016C11.6666 7.83195 11.5697 8.1411 11.4026 8.40083C10.9045 9.17491 9.99998 9.913 9.99998 10.8335V11.2502" stroke="#050506" stroke-width="1.5" stroke-linecap="round"/>
<path d="M9.99335 14.1665H10.0023" stroke="#050506" stroke-width="1.5" stroke-linecap="round" stroke-linejoin="round"/>
</g>
<defs>
<clipPath id="clip0_2762_2520">
<rect width="20" height="20" fill="white"/>
</clipPath>
</defs>
</svg>
