<svg width="20" height="20" viewBox="0 0 20 20" fill="none" xmlns="http://www.w3.org/2000/svg">
<path d="M5.83334 10.4166C5.83334 10.6961 5.93945 10.9357 6.16798 11.1433L12.518 17.2284C12.6975 17.4041 12.9261 17.4999 13.1954 17.4999C13.7341 17.4999 14.1667 17.0847 14.1667 16.5496C14.1667 16.2861 14.0524 16.0545 13.8728 15.8708L8.15133 10.4166L13.8728 4.96234C14.0524 4.77867 14.1667 4.5391 14.1667 4.28355C14.1667 3.74851 13.7341 3.33325 13.1954 3.33325C12.9261 3.33325 12.6975 3.42908 12.518 3.60477L6.16798 9.6819C5.93945 9.89751 5.83334 10.1371 5.83334 10.4166Z" fill="#050506"/>
</svg>
