<svg width="20" height="20" viewBox="0 0 20 20" fill="none" xmlns="http://www.w3.org/2000/svg">
<path d="M17.5 5.4165C17.5 6.79721 16.3807 7.9165 15 7.9165C13.6192 7.9165 12.5 6.79721 12.5 5.4165C12.5 4.0358 13.6192 2.9165 15 2.9165C16.3807 2.9165 17.5 4.0358 17.5 5.4165Z" stroke="black" stroke-width="1.5"/>
<path d="M7.5 10C7.5 11.3807 6.38071 12.5 5 12.5C3.61929 12.5 2.5 11.3807 2.5 10C2.5 8.61925 3.61929 7.5 5 7.5C6.38071 7.5 7.5 8.61925 7.5 10Z" stroke="black" stroke-width="1.5"/>
<path d="M17.5 14.5835C17.5 15.9642 16.3807 17.0835 15 17.0835C13.6192 17.0835 12.5 15.9642 12.5 14.5835C12.5 13.2027 13.6192 12.0835 15 12.0835C16.3807 12.0835 17.5 13.2027 17.5 14.5835Z" stroke="black" stroke-width="1.5"/>
<path d="M7.27377 8.95808L12.6904 6.4585M7.27377 11.0418L12.6904 13.5414" stroke="black" stroke-width="1.5"/>
</svg>
